<svg class="icon" viewBox="0 0 1024 1024" xmlns="http://www.w3.org/2000/svg" width="200" height="200"><path d="M522.88 874.667A21.333 21.333 0 0 1 544.213 896v85.333a21.333 21.333 0 0 1-21.333 21.334h-21.333a21.333 21.333 0 0 1-21.334-21.334V896a21.333 21.333 0 0 1 21.334-21.333h21.333zm268.416-107.52 60.352 60.352a21.333 21.333 0 0 1 0 30.165l-15.083 15.083a21.333 21.333 0 0 1-30.186 0l-60.331-60.352a21.333 21.333 0 0 1 0-30.166l15.083-15.082a21.333 21.333 0 0 1 30.165 0zm-527.957 0 15.082 15.082a21.333 21.333 0 0 1 0 30.166l-60.352 60.352a21.333 21.333 0 0 1-30.165 0l-15.083-15.083a21.333 21.333 0 0 1 0-30.165l60.331-60.352a21.333 21.333 0 0 1 30.187 0zM512 277.333c141.376 0 256 114.624 256 256s-114.624 256-256 256-256-114.624-256-256 114.624-256 256-256zm0 64a192 192 0 1 0 0 384 192 192 0 0 0 0-384zm448.213 160a21.333 21.333 0 0 1 21.334 21.334V544a21.333 21.333 0 0 1-21.334 21.333H874.88A21.333 21.333 0 0 1 853.547 544v-21.333a21.333 21.333 0 0 1 21.333-21.334h85.333zm-810.666 0a21.333 21.333 0 0 1 21.333 21.334V544a21.333 21.333 0 0 1-21.333 21.333H64.213A21.333 21.333 0 0 1 42.88 544v-21.333a21.333 21.333 0 0 1 21.333-21.334h85.334zm687.04-307.413 15.082 15.083a21.333 21.333 0 0 1 0 30.165l-60.352 60.352a21.333 21.333 0 0 1-30.165 0l-15.083-15.083a21.333 21.333 0 0 1 0-30.165L806.4 193.92a21.333 21.333 0 0 1 30.187 0zm-618.496 0 60.352 60.352a21.333 21.333 0 0 1 0 30.165L263.36 299.52a21.333 21.333 0 0 1-30.187 0l-60.352-60.373a21.333 21.333 0 0 1 0-30.166l15.083-15.082a21.333 21.333 0 0 1 30.165 0zM522.9 64a21.333 21.333 0 0 1 21.334 21.333v85.334A21.333 21.333 0 0 1 522.9 192h-21.333a21.333 21.333 0 0 1-21.333-21.333V85.333A21.333 21.333 0 0 1 501.568 64h21.333z" fill="#ebebeb"/></svg>