<?xml version="1.0" standalone="no"?><!DOCTYPE svg PUBLIC "-//W3C//DTD SVG 1.1//EN" "http://www.w3.org/Graphics/SVG/1.1/DTD/svg11.dtd"><svg t="1705923322969" class="icon" viewBox="0 0 1024 1024" version="1.1" xmlns="http://www.w3.org/2000/svg" p-id="1438" xmlns:xlink="http://www.w3.org/1999/xlink" width="200" height="200"><path d="M522.88 874.666667a21.333333 21.333333 0 0 1 21.333333 21.333333v85.333333a21.333333 21.333333 0 0 1-21.333333 21.333334h-21.333333a21.333333 21.333333 0 0 1-21.333334-21.333334v-85.333333a21.333333 21.333333 0 0 1 21.333334-21.333333h21.333333z m268.416-107.52l60.352 60.352a21.333333 21.333333 0 0 1 0 30.165333l-15.082667 15.082667a21.333333 21.333333 0 0 1-30.186666 0l-60.330667-60.352a21.333333 21.333333 0 0 1 0-30.165334l15.082667-15.082666a21.333333 21.333333 0 0 1 30.165333 0z m-527.957333 0l15.082666 15.082666a21.333333 21.333333 0 0 1 0 30.165334l-60.352 60.352a21.333333 21.333333 0 0 1-30.165333 0l-15.082667-15.082667a21.333333 21.333333 0 0 1 0-30.165333l60.330667-60.352a21.333333 21.333333 0 0 1 30.186667 0zM512 277.333333c141.376 0 256 114.624 256 256s-114.624 256-256 256-256-114.624-256-256 114.624-256 256-256z m0 64a192 192 0 1 0 0 384 192 192 0 0 0 0-384z m448.213333 160a21.333333 21.333333 0 0 1 21.333334 21.333334v21.333333a21.333333 21.333333 0 0 1-21.333334 21.333333h-85.333333a21.333333 21.333333 0 0 1-21.333333-21.333333v-21.333333a21.333333 21.333333 0 0 1 21.333333-21.333334h85.333333z m-810.666666 0a21.333333 21.333333 0 0 1 21.333333 21.333334v21.333333a21.333333 21.333333 0 0 1-21.333333 21.333333h-85.333334a21.333333 21.333333 0 0 1-21.333333-21.333333v-21.333333a21.333333 21.333333 0 0 1 21.333333-21.333334h85.333334zM836.586667 193.92l15.082666 15.082667a21.333333 21.333333 0 0 1 0 30.165333l-60.352 60.352a21.333333 21.333333 0 0 1-30.165333 0l-15.082667-15.082667a21.333333 21.333333 0 0 1 0-30.165333l60.330667-60.352a21.333333 21.333333 0 0 1 30.186667 0z m-618.496 0l60.352 60.352a21.333333 21.333333 0 0 1 0 30.165333l-15.082667 15.082667a21.333333 21.333333 0 0 1-30.186667 0L172.821333 239.146667a21.333333 21.333333 0 0 1 0-30.165334l15.082667-15.082666a21.333333 21.333333 0 0 1 30.165333 0zM522.901333 64a21.333333 21.333333 0 0 1 21.333334 21.333333v85.333334a21.333333 21.333333 0 0 1-21.333334 21.333333h-21.333333a21.333333 21.333333 0 0 1-21.333333-21.333333V85.333333a21.333333 21.333333 0 0 1 21.333333-21.333333h21.333333z" fill="#ebebeb" p-id="1439"></path></svg>